<?xml version="1.0" encoding="UTF-8"?>
<svg width="472px" height="36px" viewBox="0 0 472 36" version="1.1" xmlns="http://www.w3.org/2000/svg" xmlns:xlink="http://www.w3.org/1999/xlink">
    <title>Wheels</title>
    <g id="Bus" stroke="none" stroke-width="1" fill="none" fill-rule="evenodd">
        <g id="Artboard-Copy-6" transform="translate(-364, -934)">
            <g id="Group" transform="translate(220, 231)">
                <g id="Wheels" transform="translate(144, 703)">
                    <g id="Left-Wheel">
                        <path d="M0,0 L68,0 L68,23.180574 C68,27.6381677 67.5358719,29.2545989 66.6643365,30.8842285 C65.792801,32.5138581 64.5138581,33.792801 62.8842285,34.6643365 C61.2545989,35.5358719 59.6381677,36 55.180574,36 L12.819426,36 C8.3618323,36 6.74540111,35.5358719 5.11577148,34.6643365 C3.48614185,33.792801 2.20719898,32.5138581 1.33566352,30.8842285 C0.464128056,29.2545989 0,27.6381677 0,23.180574 L0,0 L0,0 Z" fill="#7A7A7A"></path>
                        <line x1="22.5" y1="1" x2="22.5" y2="35" id="Line" stroke="#9E9E9E" stroke-width="2" stroke-linecap="square"></line>
                        <line x1="45.5" y1="1" x2="45.5" y2="35" id="Line-Copy" stroke="#9E9E9E" stroke-width="2" stroke-linecap="square"></line>
                    </g>
                    <g id="Right-Wheel" transform="translate(404, 0)">
                        <path d="M0,0 L68,0 L68,23.180574 C68,27.6381677 67.5358719,29.2545989 66.6643365,30.8842285 C65.792801,32.5138581 64.5138581,33.792801 62.8842285,34.6643365 C61.2545989,35.5358719 59.6381677,36 55.180574,36 L12.819426,36 C8.3618323,36 6.74540111,35.5358719 5.11577148,34.6643365 C3.48614185,33.792801 2.20719898,32.5138581 1.33566352,30.8842285 C0.464128056,29.2545989 0,27.6381677 0,23.180574 L0,0 L0,0 Z" fill="#7A7A7A"></path>
                        <line x1="23" y1="1" x2="23" y2="35" id="Line" stroke="#9D9D9D" stroke-width="2" stroke-linecap="square"></line>
                        <line x1="46" y1="1" x2="46" y2="35" id="Line-Copy" stroke="#9D9D9D" stroke-width="2" stroke-linecap="square"></line>
                    </g>
                </g>
            </g>
        </g>
    </g>
</svg>