<?xml version="1.0" encoding="UTF-8"?>
<svg width="761px" height="90px" viewBox="0 0 761 90" version="1.1" xmlns="http://www.w3.org/2000/svg" xmlns:xlink="http://www.w3.org/1999/xlink">
    <title>Windows</title>
    <g id="Bus" stroke="none" stroke-width="1" fill="none" fill-rule="evenodd">
        <g id="Artboard-Copy-4" transform="translate(-132, -302)" fill="#FFFFFF">
            <g id="Group" transform="translate(132, 142)">
                <g id="Windows" transform="translate(0, 160)">
                    <path d="M12.819426,0 L45,0 L45,0 L45,90 L12.819426,90 C8.3618323,90 6.74540111,89.5358719 5.11577148,88.6643365 C3.48614185,87.792801 2.20719898,86.5138581 1.33566352,84.8842285 C0.464128056,83.2545989 0,81.6381677 0,77.180574 L0,12.819426 C0,8.3618323 0.464128056,6.74540111 1.33566352,5.11577148 C2.20719898,3.48614185 3.48614185,2.20719898 5.11577148,1.33566352 C6.74540111,0.464128056 8.3618323,0 12.819426,0 Z" id="Left-Window"></path>
                    <path d="M728.819426,0 L761,0 L761,0 L761,90 L728.819426,90 C724.361832,90 722.745401,89.5358719 721.115771,88.6643365 C719.486142,87.792801 718.207199,86.5138581 717.335664,84.8842285 C716.464128,83.2545989 716,81.6381677 716,77.180574 L716,12.819426 C716,8.3618323 716.464128,6.74540111 717.335664,5.11577148 C718.207199,3.48614185 719.486142,2.20719898 721.115771,1.33566352 C722.745401,0.464128056 724.361832,0 728.819426,0 Z" id="Right-Window" transform="translate(738.5, 45) scale(-1, 1) translate(-738.5, -45)"></path>
                </g>
            </g>
        </g>
    </g>
</svg>